<svg id="Capa_1" data-name="Capa 1" xmlns="http://www.w3.org/2000/svg" viewBox="0 0 801 191.73"><defs><style>.cls-1{fill:#fff;}</style></defs><path class="cls-1" d="M575.38,171.07a13.69,13.69,0,0,1-5.32-5.11,14.71,14.71,0,0,1,0-14.57,13.64,13.64,0,0,1,5.32-5.12,16.47,16.47,0,0,1,15.17,0,13.52,13.52,0,0,1,5.29,5.1,14.92,14.92,0,0,1,0,14.61,13.56,13.56,0,0,1-5.29,5.09,16.47,16.47,0,0,1-15.17,0ZM588.5,168a10.24,10.24,0,0,0,3.86-3.84,11.33,11.33,0,0,0,0-11,10.17,10.17,0,0,0-3.86-3.84A11,11,0,0,0,583,148a11.16,11.16,0,0,0-5.55,1.4,10.07,10.07,0,0,0-3.9,3.84,11.26,11.26,0,0,0,0,11,10.13,10.13,0,0,0,3.9,3.84,11.16,11.16,0,0,0,5.55,1.39A11,11,0,0,0,588.5,168Z" transform="translate(-32 -84.39)"/><path class="cls-1" d="M620,152.66a9.66,9.66,0,0,1,3.8,3.78,12.23,12.23,0,0,1,0,11.25,9.65,9.65,0,0,1-3.8,3.8,11.11,11.11,0,0,1-5.49,1.35,9.81,9.81,0,0,1-4.16-.87,8.64,8.64,0,0,1-3.21-2.55v10.91h-3.82V151.51H607v3.34a8.15,8.15,0,0,1,3.23-2.65,10.12,10.12,0,0,1,4.3-.89A11.11,11.11,0,0,1,620,152.66Zm-2.17,15.9a6.76,6.76,0,0,0,2.55-2.62,8.58,8.58,0,0,0,0-7.77,6.64,6.64,0,0,0-2.55-2.6,7.27,7.27,0,0,0-3.64-.92,7,7,0,0,0-3.61.94,6.75,6.75,0,0,0-2.54,2.6,7.76,7.76,0,0,0-.94,3.87,8,8,0,0,0,.92,3.88,6.48,6.48,0,0,0,2.54,2.62,7.5,7.5,0,0,0,7.27,0Z" transform="translate(-32 -84.39)"/><path class="cls-1" d="M630.5,146.73a2.36,2.36,0,0,1-.74-1.75,2.46,2.46,0,0,1,.74-1.78,2.51,2.51,0,0,1,1.85-.73,2.57,2.57,0,0,1,1.85.7,2.28,2.28,0,0,1,.74,1.73,2.47,2.47,0,0,1-.74,1.81,2.74,2.74,0,0,1-3.7,0Zm-.06,4.78h3.82v21.1h-3.82Z" transform="translate(-32 -84.39)"/><path class="cls-1" d="M659.2,153.64q2.37,2.33,2.37,6.82v12.15h-3.82V160.9a6.51,6.51,0,0,0-1.47-4.62,5.57,5.57,0,0,0-4.22-1.55,6.57,6.57,0,0,0-4.9,1.81,7.06,7.06,0,0,0-1.79,5.2v10.87h-3.82v-21.1h3.66v3.18a7.47,7.47,0,0,1,3.12-2.51,11,11,0,0,1,4.48-.87A8.69,8.69,0,0,1,659.2,153.64Z" transform="translate(-32 -84.39)"/><path class="cls-1" d="M668.72,146.73A2.36,2.36,0,0,1,668,145a2.46,2.46,0,0,1,.74-1.78,2.51,2.51,0,0,1,1.85-.73,2.57,2.57,0,0,1,1.85.7,2.28,2.28,0,0,1,.74,1.73,2.47,2.47,0,0,1-.74,1.81,2.74,2.74,0,0,1-3.7,0Zm-.06,4.78h3.82v21.1h-3.82Z" transform="translate(-32 -84.39)"/><path class="cls-1" d="M683.15,171.45a10.12,10.12,0,0,1-3.92-3.84,11.58,11.58,0,0,1,0-11.11,10,10,0,0,1,3.92-3.82,12.31,12.31,0,0,1,11.29,0,10.08,10.08,0,0,1,3.9,3.82,11.65,11.65,0,0,1,0,11.11,10.2,10.2,0,0,1-3.9,3.84,12.16,12.16,0,0,1-11.29,0Zm9.3-2.89a6.56,6.56,0,0,0,2.52-2.62,8.66,8.66,0,0,0,0-7.77,6.44,6.44,0,0,0-2.52-2.6,7.68,7.68,0,0,0-7.29,0,6.64,6.64,0,0,0-2.55,2.6,8.58,8.58,0,0,0,0,7.77,6.76,6.76,0,0,0,2.55,2.62,7.54,7.54,0,0,0,7.29,0Zm-1.26-25.3h4.86l-6.69,5.18h-3.58Z" transform="translate(-32 -84.39)"/><path class="cls-1" d="M722.7,153.64q2.37,2.33,2.37,6.82v12.15h-3.82V160.9a6.51,6.51,0,0,0-1.47-4.62,5.56,5.56,0,0,0-4.22-1.55,6.57,6.57,0,0,0-4.9,1.81,7.06,7.06,0,0,0-1.79,5.2v10.87h-3.82v-21.1h3.66v3.18a7.47,7.47,0,0,1,3.12-2.51,11,11,0,0,1,4.48-.87A8.69,8.69,0,0,1,722.7,153.64Z" transform="translate(-32 -84.39)"/><path class="cls-1" d="M735,168.17a2.65,2.65,0,0,1,.74,1.93,4.42,4.42,0,0,1-.14,1.15c-.09.37-.27.94-.53,1.71l-1.88,5.54h-2.5l1.47-5.93a2.46,2.46,0,0,1-1.21-.94,2.59,2.59,0,0,1-.46-1.53,2.64,2.64,0,0,1,.75-1.95,2.58,2.58,0,0,1,1.91-.76A2.41,2.41,0,0,1,735,168.17Z" transform="translate(-32 -84.39)"/><path class="cls-1" d="M570.4,192.51h4v27.87h-4Z" transform="translate(-32 -84.39)"/><path class="cls-1" d="M599.84,201.41q2.37,2.33,2.37,6.83v12.14h-3.82v-11.7a6.47,6.47,0,0,0-1.47-4.62,5.52,5.52,0,0,0-4.22-1.55,6.57,6.57,0,0,0-4.9,1.81,7.05,7.05,0,0,0-1.79,5.19v10.87h-3.82v-21.1h3.66v3.19A7.4,7.4,0,0,1,589,200a11,11,0,0,1,4.48-.88A8.73,8.73,0,0,1,599.84,201.41Z" transform="translate(-32 -84.39)"/><path class="cls-1" d="M627.57,199.28l-9.23,21.1h-3.91l-9.23-21.1h4l7.24,16.92,7.41-16.92Z" transform="translate(-32 -84.39)"/><path class="cls-1" d="M649.55,211.11H632.43a6.63,6.63,0,0,0,2.45,4.47,8,8,0,0,0,5.19,1.7,7.81,7.81,0,0,0,6.09-2.55l2.12,2.47a9.29,9.29,0,0,1-3.57,2.54,12.27,12.27,0,0,1-4.76.88,12.56,12.56,0,0,1-5.93-1.37,9.83,9.83,0,0,1-4-3.85,11.78,11.78,0,0,1,0-11.1,9.92,9.92,0,0,1,3.78-3.85,10.85,10.85,0,0,1,5.44-1.37,10.61,10.61,0,0,1,5.39,1.37,9.66,9.66,0,0,1,3.7,3.85,11.68,11.68,0,0,1,1.34,5.65C649.63,210.24,649.6,210.63,649.55,211.11ZM634.6,204a6.68,6.68,0,0,0-2.17,4.38H646A6.84,6.84,0,0,0,643.8,204a7.14,7.14,0,0,0-9.2,0Z" transform="translate(-32 -84.39)"/><path class="cls-1" d="M656,219.92a10.77,10.77,0,0,1-3.74-1.77l1.59-3a11.64,11.64,0,0,0,3.38,1.59,13.89,13.89,0,0,0,4,.6q5,0,5-2.87a1.82,1.82,0,0,0-.68-1.51,4.11,4.11,0,0,0-1.69-.82c-.67-.17-1.64-.37-2.88-.58a28.6,28.6,0,0,1-4.17-.91,6.49,6.49,0,0,1-2.76-1.75,4.9,4.9,0,0,1-1.16-3.47,5.43,5.43,0,0,1,2.39-4.6,10.75,10.75,0,0,1,6.41-1.73,17.35,17.35,0,0,1,4.22.52,11.41,11.41,0,0,1,3.47,1.39l-1.64,3a10.9,10.9,0,0,0-6.09-1.67,7,7,0,0,0-3.7.79,2.41,2.41,0,0,0-1.28,2.11,2,2,0,0,0,.72,1.64,4.59,4.59,0,0,0,1.77.87c.71.19,1.7.4,3,.64a32.28,32.28,0,0,1,4.12.93A6.25,6.25,0,0,1,669,211a4.71,4.71,0,0,1,1.11,3.34,5.26,5.26,0,0,1-2.45,4.56,11.52,11.52,0,0,1-6.66,1.69A17.47,17.47,0,0,1,656,219.92Z" transform="translate(-32 -84.39)"/><path class="cls-1" d="M686.73,219.15a5.66,5.66,0,0,1-2.07,1.09,8.7,8.7,0,0,1-2.55.38,6.76,6.76,0,0,1-4.93-1.71,6.54,6.54,0,0,1-1.75-4.9V202.43h-3.59v-3.15h3.59v-4.62h3.82v4.62h6v3.15h-6v11.42a3.72,3.72,0,0,0,.85,2.63,3.21,3.21,0,0,0,2.45.91,4.62,4.62,0,0,0,3-1Z" transform="translate(-32 -84.39)"/><path class="cls-1" d="M691.41,194.5a2.34,2.34,0,0,1-.74-1.75,2.42,2.42,0,0,1,.74-1.77,2.52,2.52,0,0,1,1.85-.74,2.61,2.61,0,0,1,1.85.7,2.26,2.26,0,0,1,.74,1.73,2.42,2.42,0,0,1-.74,1.81,2.48,2.48,0,0,1-1.85.74A2.54,2.54,0,0,1,691.41,194.5Zm-.06,4.78h3.82v21.1h-3.82Z" transform="translate(-32 -84.39)"/><path class="cls-1" d="M722.64,199.28v18.24q0,5.52-2.74,8.18c-1.84,1.76-4.57,2.64-8.21,2.64a19.76,19.76,0,0,1-5.69-.81,11.41,11.41,0,0,1-4.38-2.33l1.83-2.95a10.86,10.86,0,0,0,3.65,2,13.8,13.8,0,0,0,4.48.74c2.46,0,4.29-.58,5.47-1.75s1.77-2.95,1.77-5.34v-1.67a8.5,8.5,0,0,1-3.32,2.45,11.17,11.17,0,0,1-4.28.82,11.46,11.46,0,0,1-5.48-1.3,9.64,9.64,0,0,1-3.84-3.62,10.86,10.86,0,0,1,0-10.63,9.45,9.45,0,0,1,3.84-3.6,11.68,11.68,0,0,1,5.48-1.28,11.28,11.28,0,0,1,4.44.88,8.2,8.2,0,0,1,3.36,2.59v-3.27Zm-7.26,16a6.57,6.57,0,0,0,2.59-2.45,6.89,6.89,0,0,0,.93-3.57,6.46,6.46,0,0,0-2-5,8.2,8.2,0,0,0-10.47,0,6.46,6.46,0,0,0-2,5,6.89,6.89,0,0,0,.93,3.57,6.57,6.57,0,0,0,2.59,2.45,8.5,8.5,0,0,0,7.49,0Z" transform="translate(-32 -84.39)"/><path class="cls-1" d="M744.32,201.23q2.32,2.15,2.33,6.41v12.74H743v-2.79a6,6,0,0,1-2.73,2.25,10.36,10.36,0,0,1-4.2.78,8.79,8.79,0,0,1-5.67-1.71,5.89,5.89,0,0,1-.1-9q2-1.69,6.45-1.69h6.05v-.76a4.9,4.9,0,0,0-1.43-3.78,6.06,6.06,0,0,0-4.23-1.31,11.24,11.24,0,0,0-3.66.61,9.41,9.41,0,0,0-3,1.66l-1.59-2.87a11.26,11.26,0,0,1,3.9-2,16.08,16.08,0,0,1,4.81-.7Q742,199.08,744.32,201.23Zm-3.8,15.47a5.59,5.59,0,0,0,2.31-2.77V211h-5.89q-4.86,0-4.86,3.26a3,3,0,0,0,1.23,2.51,5.66,5.66,0,0,0,3.43.91A7.09,7.09,0,0,0,740.52,216.7Z" transform="translate(-32 -84.39)"/><path class="cls-1" d="M757.3,219.23a10.11,10.11,0,0,1-4-3.85,11.42,11.42,0,0,1,0-11.1,10.06,10.06,0,0,1,4-3.83,11.92,11.92,0,0,1,5.75-1.37,11.06,11.06,0,0,1,5.12,1.16,8.19,8.19,0,0,1,3.48,3.34l-2.9,1.87a6.6,6.6,0,0,0-2.47-2.27,7.09,7.09,0,0,0-3.27-.75,7.54,7.54,0,0,0-3.72.91A6.57,6.57,0,0,0,756.7,206a8.64,8.64,0,0,0,0,7.8,6.57,6.57,0,0,0,2.59,2.61,7.54,7.54,0,0,0,3.72.92,7.1,7.1,0,0,0,3.27-.76,6.51,6.51,0,0,0,2.47-2.27l2.9,1.83a8.38,8.38,0,0,1-3.48,3.37,10.94,10.94,0,0,1-5.12,1.17A11.71,11.71,0,0,1,757.3,219.23Z" transform="translate(-32 -84.39)"/><path class="cls-1" d="M776.65,194.5a2.34,2.34,0,0,1-.74-1.75,2.42,2.42,0,0,1,.74-1.77,2.52,2.52,0,0,1,1.85-.74,2.61,2.61,0,0,1,1.85.7,2.3,2.3,0,0,1,.74,1.73,2.53,2.53,0,0,1-2.59,2.55A2.54,2.54,0,0,1,776.65,194.5Zm-.06,4.78h3.82v21.1h-3.82Z" transform="translate(-32 -84.39)"/><path class="cls-1" d="M791.08,219.23a10.08,10.08,0,0,1-3.92-3.85,11.56,11.56,0,0,1,0-11.1,10,10,0,0,1,3.92-3.83,12.31,12.31,0,0,1,11.29,0,10.18,10.18,0,0,1,3.9,3.83,11.63,11.63,0,0,1,0,11.1,10.23,10.23,0,0,1-3.9,3.85,12.16,12.16,0,0,1-11.29,0Zm9.3-2.89a6.58,6.58,0,0,0,2.52-2.63,8.64,8.64,0,0,0,0-7.76,6.47,6.47,0,0,0-2.52-2.61,7.76,7.76,0,0,0-7.29,0,6.54,6.54,0,0,0-2.55,2.61,8.56,8.56,0,0,0,0,7.76,6.66,6.66,0,0,0,2.55,2.63,7.54,7.54,0,0,0,7.29,0ZM799.12,191H804l-6.69,5.17h-3.58Z" transform="translate(-32 -84.39)"/><path class="cls-1" d="M830.63,201.41q2.37,2.33,2.37,6.83v12.14h-3.82v-11.7a6.47,6.47,0,0,0-1.47-4.62,5.53,5.53,0,0,0-4.22-1.55,6.57,6.57,0,0,0-4.9,1.81,7.05,7.05,0,0,0-1.79,5.19v10.87H813v-21.1h3.67v3.19a7.4,7.4,0,0,1,3.12-2.51,11,11,0,0,1,4.48-.88A8.73,8.73,0,0,1,830.63,201.41Z" transform="translate(-32 -84.39)"/><path class="cls-1" d="M588.52,247.05l-10.23,23.22a10.44,10.44,0,0,1-3.17,4.53,7.2,7.2,0,0,1-4.36,1.32,9.32,9.32,0,0,1-3-.5,6.13,6.13,0,0,1-2.4-1.45L567,271.3a5.3,5.3,0,0,0,3.78,1.55,3.64,3.64,0,0,0,2.33-.73,6.38,6.38,0,0,0,1.69-2.53l.68-1.47-9.32-21.07h4l7.37,16.89,7.28-16.89Z" transform="translate(-32 -84.39)"/><path class="cls-1" d="M622,268.15l-6-8.56c-.75.06-1.33.08-1.75.08h-6.89v8.48h-4V240.29h10.87c3.6,0,6.45.86,8.52,2.58a8.78,8.78,0,0,1,3.1,7.13,9.31,9.31,0,0,1-1.59,5.49,9,9,0,0,1-4.54,3.31l6.61,9.35Zm-2.11-13.49a6.43,6.43,0,0,0,0-9.3,9,9,0,0,0-5.77-1.61h-6.77v12.54h6.77A8.9,8.9,0,0,0,619.89,254.66Z" transform="translate(-32 -84.39)"/><path class="cls-1" d="M650.74,258.88H633.62a6.65,6.65,0,0,0,2.45,4.48,8,8,0,0,0,5.2,1.69,7.82,7.82,0,0,0,6.09-2.55l2.11,2.47a9.35,9.35,0,0,1-3.56,2.55,13.49,13.49,0,0,1-10.69-.5,9.9,9.9,0,0,1-4-3.84,11.76,11.76,0,0,1,0-11.11,9.83,9.83,0,0,1,3.78-3.84,10.72,10.72,0,0,1,5.43-1.37,10.53,10.53,0,0,1,5.4,1.37,9.7,9.7,0,0,1,3.7,3.84,11.7,11.7,0,0,1,1.33,5.65A9.37,9.37,0,0,1,650.74,258.88Zm-15-7.13a6.82,6.82,0,0,0-2.17,4.38h13.54a6.8,6.8,0,0,0-2.17-4.36,6.55,6.55,0,0,0-4.6-1.69A6.64,6.64,0,0,0,635.79,251.75Z" transform="translate(-32 -84.39)"/><path class="cls-1" d="M657.19,267.7a11.14,11.14,0,0,1-3.74-1.77l1.59-3a11.58,11.58,0,0,0,3.39,1.59,13.79,13.79,0,0,0,4,.6q5,0,5-2.87a1.86,1.86,0,0,0-.67-1.51,4.45,4.45,0,0,0-1.69-.82c-.68-.17-1.64-.36-2.89-.57a28,28,0,0,1-4.16-.92,6.37,6.37,0,0,1-2.77-1.75,4.87,4.87,0,0,1-1.15-3.46,5.38,5.38,0,0,1,2.39-4.6,10.66,10.66,0,0,1,6.41-1.73,18,18,0,0,1,4.22.51,11.34,11.34,0,0,1,3.46,1.4l-1.63,3a11,11,0,0,0-6.09-1.67,7,7,0,0,0-3.71.8,2.39,2.39,0,0,0-1.27,2.11,2,2,0,0,0,.72,1.63,4.46,4.46,0,0,0,1.77.88c.7.18,1.69.39,3,.63a30.09,30.09,0,0,1,4.12.94,6.08,6.08,0,0,1,2.69,1.69,4.71,4.71,0,0,1,1.12,3.34,5.29,5.29,0,0,1-2.45,4.56,11.56,11.56,0,0,1-6.67,1.69A17.83,17.83,0,0,1,657.19,267.7Z" transform="translate(-32 -84.39)"/><path class="cls-1" d="M695.73,247.05v21.1h-3.62V265a7.71,7.71,0,0,1-3.05,2.53,9.44,9.44,0,0,1-4.12.89,9.19,9.19,0,0,1-6.65-2.33q-2.43-2.32-2.43-6.86V247.05h3.83v11.71a6.58,6.58,0,0,0,1.47,4.64,5.49,5.49,0,0,0,4.22,1.57,6.31,6.31,0,0,0,4.78-1.83,7.23,7.23,0,0,0,1.75-5.18V247.05Z" transform="translate(-32 -84.39)"/><path class="cls-1" d="M703,238.61h3.82v29.54H703Z" transform="translate(-32 -84.39)"/><path class="cls-1" d="M726.51,266.92a5.8,5.8,0,0,1-2.08,1.1,8.67,8.67,0,0,1-2.54.37,6.77,6.77,0,0,1-4.94-1.71,6.51,6.51,0,0,1-1.75-4.89V250.2h-3.59v-3.15h3.59v-4.61H719v4.61h6.05v3.15H719v11.43a3.69,3.69,0,0,0,.86,2.62,3.17,3.17,0,0,0,2.44.92,4.58,4.58,0,0,0,3-1Z" transform="translate(-32 -84.39)"/><path class="cls-1" d="M745.51,249c1.56,1.43,2.33,3.57,2.33,6.4v12.74h-3.62v-2.78a6.1,6.1,0,0,1-2.73,2.25,10.53,10.53,0,0,1-4.2.77,8.79,8.79,0,0,1-5.67-1.71,5.89,5.89,0,0,1-.1-9c1.35-1.12,3.5-1.69,6.45-1.69h6v-.75a4.91,4.91,0,0,0-1.43-3.79,6.08,6.08,0,0,0-4.22-1.31,11.27,11.27,0,0,0-3.67.62,9.39,9.39,0,0,0-3,1.65l-1.59-2.87a11.61,11.61,0,0,1,3.9-2,16.45,16.45,0,0,1,4.81-.69C741.72,246.86,744,247.57,745.51,249Zm-3.8,15.46a5.6,5.6,0,0,0,2.31-2.76v-2.95h-5.89q-4.86,0-4.86,3.26a3,3,0,0,0,1.24,2.51,5.63,5.63,0,0,0,3.42.92A7.09,7.09,0,0,0,741.71,264.47Z" transform="translate(-32 -84.39)"/><path class="cls-1" d="M775,238.61v29.54h-3.66v-3.34a8.25,8.25,0,0,1-3.22,2.67,10,10,0,0,1-4.3.91,11.12,11.12,0,0,1-5.5-1.35,9.71,9.71,0,0,1-3.8-3.8,11.3,11.3,0,0,1-1.37-5.64,11.16,11.16,0,0,1,1.37-5.61,9.73,9.73,0,0,1,3.8-3.78,11.12,11.12,0,0,1,5.5-1.35,10.14,10.14,0,0,1,4.18.85,8.09,8.09,0,0,1,3.18,2.53V238.61Zm-7.24,25.5a6.5,6.5,0,0,0,2.55-2.62,8.75,8.75,0,0,0,0-7.77,6.41,6.41,0,0,0-2.55-2.61,7.71,7.71,0,0,0-7.27,0,6.67,6.67,0,0,0-2.55,2.61,8.58,8.58,0,0,0,0,7.77,6.76,6.76,0,0,0,2.55,2.62,7.5,7.5,0,0,0,7.27,0Z" transform="translate(-32 -84.39)"/><path class="cls-1" d="M785.58,267a10.12,10.12,0,0,1-3.92-3.84,11.65,11.65,0,0,1,0-11.11,10,10,0,0,1,3.92-3.82,11.56,11.56,0,0,1,5.66-1.37,11.42,11.42,0,0,1,5.63,1.37,10,10,0,0,1,3.9,3.82,11.65,11.65,0,0,1,0,11.11,10.13,10.13,0,0,1-3.9,3.84,11.33,11.33,0,0,1-5.63,1.39A11.47,11.47,0,0,1,785.58,267Zm9.3-2.89a6.58,6.58,0,0,0,2.53-2.62,8.75,8.75,0,0,0,0-7.77,6.49,6.49,0,0,0-2.53-2.61,7.76,7.76,0,0,0-7.29,0,6.58,6.58,0,0,0-2.54,2.61,8.5,8.5,0,0,0,0,7.77,6.67,6.67,0,0,0,2.54,2.62,7.54,7.54,0,0,0,7.29,0Z" transform="translate(-32 -84.39)"/><path class="cls-1" d="M806,267.62a2.65,2.65,0,0,1-.8-2,2.58,2.58,0,0,1,.8-1.93,2.64,2.64,0,0,1,1.91-.78,2.52,2.52,0,0,1,1.87.76,2.64,2.64,0,0,1,.76,1.95,2.68,2.68,0,0,1-.78,2,2.55,2.55,0,0,1-1.85.77A2.67,2.67,0,0,1,806,267.62Z" transform="translate(-32 -84.39)"/><path class="cls-1" d="M256.13,174V144.19h61v99.67h19.27V273.7H256.13V243.86H275.8V174Zm18.2-67a22.69,22.69,0,0,1,22.61-22.68A21.62,21.62,0,0,1,313,91.06a22,22,0,0,1,6.56,16,22.61,22.61,0,0,1-45.22,0Z" transform="translate(-32 -84.39)"/><path class="cls-1" d="M440.09,243.86V273.7H349V243.86h23.95V174H350.45V144.19h60.34V177.1q3.48-14.17,15.85-24.55a44.1,44.1,0,0,1,29.24-10.36q2.81,0,6.69.13v39.07q-15.66,0-25.56,3.47t-16.32,15.25q-6.42,11.77-6.42,27.83v15.92Z" transform="translate(-32 -84.39)"/><path class="cls-1" d="M479.69,273.7V228.88h44.69V273.7Z" transform="translate(-32 -84.39)"/><path class="cls-1" d="M238.83,180.31q0-40-27.62-67.82-26.43-26.62-71.68-27.76v34.11a45.83,45.83,0,0,1,32.95,16.66q14.31,16.84,14.31,44,0,30.38-15,46.49c-9,9.7-19.78,15-32.28,15.93v34q45.1-1.15,71.61-27.69Q238.83,220.45,238.83,180.31Z" transform="translate(-32 -84.39)"/><path class="cls-1" d="M98.89,225.67q-14.72-16.46-14.71-43.88,0-31,14.91-47.1,13.45-14.47,32.21-15.85V84.73q-45.48,1.15-71.81,27.82Q32,140.45,32,180.31q0,38.53,26.76,67.1Q84.4,274.77,131.3,275.9v-34C118.57,241,107.76,235.58,98.89,225.67Z" transform="translate(-32 -84.39)"/></svg>